<?xml version="1.0" encoding="UTF-8" standalone="no"?>
<!DOCTYPE svg PUBLIC "-//W3C//DTD SVG 1.1//EN"
 "http://www.w3.org/Graphics/SVG/1.1/DTD/svg11.dtd">
<!-- Generated by graphviz version 2.47.3 (20210619.1520)
 -->
<!-- Title: dependencies Pages: 1 -->
<svg width="318pt" height="247pt"
 viewBox="0.00 0.00 318.00 246.80" xmlns="http://www.w3.org/2000/svg" xmlns:xlink="http://www.w3.org/1999/xlink">
<g id="graph0" class="graph" transform="scale(1 1) rotate(0) translate(4 242.8)">
<title>dependencies</title>
<polygon fill="white" stroke="transparent" points="-4,4 -4,-242.8 314,-242.8 314,4 -4,4"/>
<text text-anchor="middle" x="155" y="-8.2" font-family="sans-serif" font-size="14.00">dependencies</text>
<g id="clust1" class="cluster">
<title>cluster_MaterialModule</title>
<polygon fill="none" stroke="black" stroke-dasharray="1,5" points="8,-32.8 8,-230.8 302,-230.8 302,-32.8 8,-32.8"/>
</g>
<g id="clust3" class="cluster">
<title>cluster_MaterialModule_imports</title>
<polygon fill="none" stroke="black" points="16,-40.8 16,-92.8 294,-92.8 294,-40.8 16,-40.8"/>
</g>
<g id="clust4" class="cluster">
<title>cluster_MaterialModule_exports</title>
<polygon fill="none" stroke="black" points="79,-170.8 79,-222.8 231,-222.8 231,-170.8 79,-170.8"/>
</g>
<!-- CommonModule -->
<g id="node1" class="node">
<title>CommonModule</title>
<polygon fill="#8dd3c7" stroke="black" points="285.67,-84.8 282.67,-88.8 261.67,-88.8 258.67,-84.8 174.33,-84.8 174.33,-48.8 285.67,-48.8 285.67,-84.8"/>
<text text-anchor="middle" x="230" y="-62.6" font-family="Times,serif" font-size="14.00">CommonModule</text>
</g>
<!-- MaterialModule -->
<g id="node3" class="node">
<title>MaterialModule</title>
<polygon fill="#8dd3c7" stroke="black" points="208.47,-149.8 205.47,-153.8 184.47,-153.8 181.47,-149.8 101.53,-149.8 101.53,-113.8 208.47,-113.8 208.47,-149.8"/>
<text text-anchor="middle" x="155" y="-127.6" font-family="Times,serif" font-size="14.00">MaterialModule</text>
</g>
<!-- CommonModule&#45;&gt;MaterialModule -->
<g id="edge1" class="edge">
<title>CommonModule&#45;&gt;MaterialModule</title>
<path fill="none" stroke="black" d="M191.33,-84.91C191.33,-84.91 191.33,-103.79 191.33,-103.79"/>
<polygon fill="black" stroke="black" points="187.83,-103.79 191.33,-113.79 194.83,-103.79 187.83,-103.79"/>
</g>
<!-- materialComponents -->
<g id="node2" class="node">
<title>materialComponents</title>
<polygon fill="#8dd3c7" stroke="black" points="156.14,-84.8 153.14,-88.8 132.14,-88.8 129.14,-84.8 23.86,-84.8 23.86,-48.8 156.14,-48.8 156.14,-84.8"/>
<text text-anchor="middle" x="90" y="-62.6" font-family="Times,serif" font-size="14.00">materialComponents</text>
</g>
<!-- materialComponents&#45;&gt;MaterialModule -->
<g id="edge2" class="edge">
<title>materialComponents&#45;&gt;MaterialModule</title>
<path fill="none" stroke="black" d="M128.92,-84.91C128.92,-84.91 128.92,-103.79 128.92,-103.79"/>
<polygon fill="black" stroke="black" points="125.42,-103.79 128.92,-113.79 132.42,-103.79 125.42,-103.79"/>
</g>
<!-- materialComponents  -->
<g id="node4" class="node">
<title>materialComponents </title>
<polygon fill="#fb8072" stroke="black" points="223.14,-214.8 86.86,-214.8 86.86,-178.8 223.14,-178.8 223.14,-214.8"/>
<text text-anchor="middle" x="155" y="-192.6" font-family="Times,serif" font-size="14.00">materialComponents </text>
</g>
<!-- MaterialModule&#45;&gt;materialComponents  -->
<g id="edge3" class="edge">
<title>MaterialModule&#45;&gt;materialComponents </title>
<path fill="none" stroke="black" stroke-dasharray="5,2" d="M155,-149.91C155,-149.91 155,-168.79 155,-168.79"/>
<polygon fill="black" stroke="black" points="151.5,-168.79 155,-178.79 158.5,-168.79 151.5,-168.79"/>
</g>
</g>
</svg>
