<?xml version="1.0" encoding="UTF-8" standalone="no"?>
<!DOCTYPE svg PUBLIC "-//W3C//DTD SVG 1.1//EN"
 "http://www.w3.org/Graphics/SVG/1.1/DTD/svg11.dtd">
<!-- Generated by graphviz version 2.47.3 (20210619.1520)
 -->
<!-- Title: dependencies Pages: 1 -->
<svg width="1045pt" height="247pt"
 viewBox="0.00 0.00 1045.00 246.80" xmlns="http://www.w3.org/2000/svg" xmlns:xlink="http://www.w3.org/1999/xlink">
<g id="graph0" class="graph" transform="scale(1 1) rotate(0) translate(4 242.8)">
<title>dependencies</title>
<polygon fill="white" stroke="transparent" points="-4,4 -4,-242.8 1041,-242.8 1041,4 -4,4"/>
<text text-anchor="middle" x="518.5" y="-8.2" font-family="sans-serif" font-size="14.00">dependencies</text>
<g id="clust1" class="cluster">
<title>cluster_ProductsModule</title>
<polygon fill="none" stroke="black" stroke-dasharray="1,5" points="8,-32.8 8,-230.8 1029,-230.8 1029,-32.8 8,-32.8"/>
</g>
<g id="clust2" class="cluster">
<title>cluster_ProductsModule_declarations</title>
<polygon fill="none" stroke="black" points="505,-40.8 505,-92.8 1021,-92.8 1021,-40.8 505,-40.8"/>
</g>
<g id="clust7" class="cluster">
<title>cluster_ProductsModule_exports</title>
<polygon fill="none" stroke="black" points="312,-170.8 312,-222.8 558,-222.8 558,-170.8 312,-170.8"/>
</g>
<g id="clust6" class="cluster">
<title>cluster_ProductsModule_imports</title>
<polygon fill="none" stroke="black" points="16,-40.8 16,-92.8 497,-92.8 497,-40.8 16,-40.8"/>
</g>
<!-- ProductsListComponent -->
<g id="node1" class="node">
<title>ProductsListComponent</title>
<polygon fill="#ffffb3" stroke="black" points="1013.1,-84.8 860.9,-84.8 860.9,-48.8 1013.1,-48.8 1013.1,-84.8"/>
<text text-anchor="middle" x="937" y="-62.6" font-family="Times,serif" font-size="14.00">ProductsListComponent</text>
</g>
<!-- ProductsModule -->
<g id="node4" class="node">
<title>ProductsModule</title>
<polygon fill="#8dd3c7" stroke="black" points="487.04,-149.8 484.04,-153.8 463.04,-153.8 460.04,-149.8 378.96,-149.8 378.96,-113.8 487.04,-113.8 487.04,-149.8"/>
<text text-anchor="middle" x="433" y="-127.6" font-family="Times,serif" font-size="14.00">ProductsModule</text>
</g>
<!-- ProductsListComponent&#45;&gt;ProductsModule -->
<g id="edge1" class="edge">
<title>ProductsListComponent&#45;&gt;ProductsModule</title>
<path fill="none" stroke="black" d="M937,-85.09C937,-107.01 937,-140.8 937,-140.8 937,-140.8 497.42,-140.8 497.42,-140.8"/>
<polygon fill="black" stroke="black" points="497.42,-137.3 487.42,-140.8 497.42,-144.3 497.42,-137.3"/>
</g>
<!-- ProductDetailsComponent -->
<g id="node2" class="node">
<title>ProductDetailsComponent</title>
<polygon fill="#ffffb3" stroke="black" points="843.03,-84.8 678.97,-84.8 678.97,-48.8 843.03,-48.8 843.03,-84.8"/>
<text text-anchor="middle" x="761" y="-62.6" font-family="Times,serif" font-size="14.00">ProductDetailsComponent</text>
</g>
<!-- ProductDetailsComponent&#45;&gt;ProductsModule -->
<g id="edge2" class="edge">
<title>ProductDetailsComponent&#45;&gt;ProductsModule</title>
<path fill="none" stroke="black" d="M761,-84.91C761,-104.14 761,-131.8 761,-131.8 761,-131.8 497.16,-131.8 497.16,-131.8"/>
<polygon fill="black" stroke="black" points="497.16,-128.3 487.16,-131.8 497.16,-135.3 497.16,-128.3"/>
</g>
<!-- AddproductComponent -->
<g id="node3" class="node">
<title>AddproductComponent</title>
<polygon fill="#ffffb3" stroke="black" points="661.2,-84.8 512.8,-84.8 512.8,-48.8 661.2,-48.8 661.2,-84.8"/>
<text text-anchor="middle" x="587" y="-62.6" font-family="Times,serif" font-size="14.00">AddproductComponent</text>
</g>
<!-- AddproductComponent&#45;&gt;ProductsModule -->
<g id="edge3" class="edge">
<title>AddproductComponent&#45;&gt;ProductsModule</title>
<path fill="none" stroke="black" d="M531.57,-84.83C531.57,-101.2 531.57,-122.8 531.57,-122.8 531.57,-122.8 497.19,-122.8 497.19,-122.8"/>
<polygon fill="black" stroke="black" points="497.19,-119.3 487.19,-122.8 497.19,-126.3 497.19,-119.3"/>
</g>
<!-- MaterialModule  -->
<g id="node9" class="node">
<title>MaterialModule </title>
<polygon fill="#fb8072" stroke="black" points="550.47,-214.8 439.53,-214.8 439.53,-178.8 550.47,-178.8 550.47,-214.8"/>
<text text-anchor="middle" x="495" y="-192.6" font-family="Times,serif" font-size="14.00">MaterialModule </text>
</g>
<!-- ProductsModule&#45;&gt;MaterialModule  -->
<g id="edge8" class="edge">
<title>ProductsModule&#45;&gt;MaterialModule </title>
<path fill="none" stroke="black" stroke-dasharray="5,2" d="M463.52,-149.91C463.52,-149.91 463.52,-168.79 463.52,-168.79"/>
<polygon fill="black" stroke="black" points="460.02,-168.79 463.52,-178.79 467.02,-168.79 460.02,-168.79"/>
</g>
<!-- RouterModule  -->
<g id="node10" class="node">
<title>RouterModule </title>
<polygon fill="#fb8072" stroke="black" points="421.65,-214.8 320.35,-214.8 320.35,-178.8 421.65,-178.8 421.65,-214.8"/>
<text text-anchor="middle" x="371" y="-192.6" font-family="Times,serif" font-size="14.00">RouterModule </text>
</g>
<!-- ProductsModule&#45;&gt;RouterModule  -->
<g id="edge9" class="edge">
<title>ProductsModule&#45;&gt;RouterModule </title>
<path fill="none" stroke="black" stroke-dasharray="5,2" d="M400.15,-149.91C400.15,-149.91 400.15,-168.79 400.15,-168.79"/>
<polygon fill="black" stroke="black" points="396.65,-168.79 400.15,-178.79 403.65,-168.79 396.65,-168.79"/>
</g>
<!-- CommonModule -->
<g id="node5" class="node">
<title>CommonModule</title>
<polygon fill="#8dd3c7" stroke="black" points="488.67,-84.8 485.67,-88.8 464.67,-88.8 461.67,-84.8 377.33,-84.8 377.33,-48.8 488.67,-48.8 488.67,-84.8"/>
<text text-anchor="middle" x="433" y="-62.6" font-family="Times,serif" font-size="14.00">CommonModule</text>
</g>
<!-- CommonModule&#45;&gt;ProductsModule -->
<g id="edge4" class="edge">
<title>CommonModule&#45;&gt;ProductsModule</title>
<path fill="none" stroke="black" d="M433,-84.91C433,-84.91 433,-103.79 433,-103.79"/>
<polygon fill="black" stroke="black" points="429.5,-103.79 433,-113.79 436.5,-103.79 429.5,-103.79"/>
</g>
<!-- MaterialModule -->
<g id="node6" class="node">
<title>MaterialModule</title>
<polygon fill="#8dd3c7" stroke="black" points="359.47,-84.8 356.47,-88.8 335.47,-88.8 332.47,-84.8 252.53,-84.8 252.53,-48.8 359.47,-48.8 359.47,-84.8"/>
<text text-anchor="middle" x="306" y="-62.6" font-family="Times,serif" font-size="14.00">MaterialModule</text>
</g>
<!-- MaterialModule&#45;&gt;ProductsModule -->
<g id="edge5" class="edge">
<title>MaterialModule&#45;&gt;ProductsModule</title>
<path fill="none" stroke="black" d="M339.95,-84.83C339.95,-101.2 339.95,-122.8 339.95,-122.8 339.95,-122.8 368.88,-122.8 368.88,-122.8"/>
<polygon fill="black" stroke="black" points="368.88,-126.3 378.88,-122.8 368.88,-119.3 368.88,-126.3"/>
</g>
<!-- FormsModule -->
<g id="node7" class="node">
<title>FormsModule</title>
<polygon fill="#8dd3c7" stroke="black" points="234.83,-84.8 231.83,-88.8 210.83,-88.8 207.83,-84.8 139.17,-84.8 139.17,-48.8 234.83,-48.8 234.83,-84.8"/>
<text text-anchor="middle" x="187" y="-62.6" font-family="Times,serif" font-size="14.00">FormsModule</text>
</g>
<!-- FormsModule&#45;&gt;ProductsModule -->
<g id="edge6" class="edge">
<title>FormsModule&#45;&gt;ProductsModule</title>
<path fill="none" stroke="black" d="M187,-84.91C187,-104.14 187,-131.8 187,-131.8 187,-131.8 368.71,-131.8 368.71,-131.8"/>
<polygon fill="black" stroke="black" points="368.71,-135.3 378.71,-131.8 368.71,-128.3 368.71,-135.3"/>
</g>
<!-- RouterModule -->
<g id="node8" class="node">
<title>RouterModule</title>
<polygon fill="#8dd3c7" stroke="black" points="121.65,-84.8 118.65,-88.8 97.65,-88.8 94.65,-84.8 24.35,-84.8 24.35,-48.8 121.65,-48.8 121.65,-84.8"/>
<text text-anchor="middle" x="73" y="-62.6" font-family="Times,serif" font-size="14.00">RouterModule</text>
</g>
<!-- RouterModule&#45;&gt;ProductsModule -->
<g id="edge7" class="edge">
<title>RouterModule&#45;&gt;ProductsModule</title>
<path fill="none" stroke="black" d="M73,-85.09C73,-107.01 73,-140.8 73,-140.8 73,-140.8 368.71,-140.8 368.71,-140.8"/>
<polygon fill="black" stroke="black" points="368.71,-144.3 378.71,-140.8 368.71,-137.3 368.71,-144.3"/>
</g>
</g>
</svg>
