<?xml version="1.0" encoding="UTF-8" standalone="no"?>
<!DOCTYPE svg PUBLIC "-//W3C//DTD SVG 1.1//EN"
 "http://www.w3.org/Graphics/SVG/1.1/DTD/svg11.dtd">
<!-- Generated by graphviz version 2.47.3 (20210619.1520)
 -->
<!-- Title: dependencies Pages: 1 -->
<svg width="756pt" height="247pt"
 viewBox="0.00 0.00 756.00 246.80" xmlns="http://www.w3.org/2000/svg" xmlns:xlink="http://www.w3.org/1999/xlink">
<g id="graph0" class="graph" transform="scale(1 1) rotate(0) translate(4 242.8)">
<title>dependencies</title>
<polygon fill="white" stroke="transparent" points="-4,4 -4,-242.8 752,-242.8 752,4 -4,4"/>
<text text-anchor="middle" x="374" y="-8.2" font-family="sans-serif" font-size="14.00">dependencies</text>
<g id="clust1" class="cluster">
<title>cluster_AppModule</title>
<polygon fill="none" stroke="black" stroke-dasharray="1,5" points="8,-32.8 8,-230.8 740,-230.8 740,-32.8 8,-32.8"/>
</g>
<g id="clust2" class="cluster">
<title>cluster_AppModule_declarations</title>
<polygon fill="none" stroke="black" points="610,-40.8 610,-92.8 732,-92.8 732,-40.8 610,-40.8"/>
</g>
<g id="clust6" class="cluster">
<title>cluster_AppModule_bootstrap</title>
<polygon fill="none" stroke="black" points="343,-170.8 343,-222.8 467,-222.8 467,-170.8 343,-170.8"/>
</g>
<g id="clust4" class="cluster">
<title>cluster_AppModule_imports</title>
<polygon fill="none" stroke="black" points="16,-40.8 16,-92.8 602,-92.8 602,-40.8 16,-40.8"/>
</g>
<!-- AppComponent -->
<g id="node1" class="node">
<title>AppComponent</title>
<polygon fill="#ffffb3" stroke="black" points="723.94,-84.8 618.06,-84.8 618.06,-48.8 723.94,-48.8 723.94,-84.8"/>
<text text-anchor="middle" x="671" y="-62.6" font-family="Times,serif" font-size="14.00">AppComponent</text>
</g>
<!-- AppModule -->
<g id="node2" class="node">
<title>AppModule</title>
<polygon fill="#8dd3c7" stroke="black" points="446.66,-149.8 443.66,-153.8 422.66,-153.8 419.66,-149.8 363.34,-149.8 363.34,-113.8 446.66,-113.8 446.66,-149.8"/>
<text text-anchor="middle" x="405" y="-127.6" font-family="Times,serif" font-size="14.00">AppModule</text>
</g>
<!-- AppComponent&#45;&gt;AppModule -->
<g id="edge1" class="edge">
<title>AppComponent&#45;&gt;AppModule</title>
<path fill="none" stroke="black" d="M671,-85.08C671,-106.12 671,-137.8 671,-137.8 671,-137.8 456.86,-137.8 456.86,-137.8"/>
<polygon fill="black" stroke="black" points="456.86,-134.3 446.86,-137.8 456.86,-141.3 456.86,-134.3"/>
</g>
<!-- AppComponent  -->
<g id="node7" class="node">
<title>AppComponent </title>
<polygon fill="#80b1d3" stroke="black" points="459.44,-214.8 350.56,-214.8 350.56,-178.8 459.44,-178.8 459.44,-214.8"/>
<text text-anchor="middle" x="405" y="-192.6" font-family="Times,serif" font-size="14.00">AppComponent </text>
</g>
<!-- AppModule&#45;&gt;AppComponent  -->
<g id="edge6" class="edge">
<title>AppModule&#45;&gt;AppComponent </title>
<path fill="none" stroke="black" stroke-dasharray="1,5" d="M405,-149.91C405,-149.91 405,-168.79 405,-168.79"/>
<polygon fill="black" stroke="black" points="401.5,-168.79 405,-178.79 408.5,-168.79 401.5,-168.79"/>
</g>
<!-- BrowserModule -->
<g id="node3" class="node">
<title>BrowserModule</title>
<polygon fill="#8dd3c7" stroke="black" points="594.47,-84.8 591.47,-88.8 570.47,-88.8 567.47,-84.8 487.53,-84.8 487.53,-48.8 594.47,-48.8 594.47,-84.8"/>
<text text-anchor="middle" x="541" y="-62.6" font-family="Times,serif" font-size="14.00">BrowserModule</text>
</g>
<!-- BrowserModule&#45;&gt;AppModule -->
<g id="edge2" class="edge">
<title>BrowserModule&#45;&gt;AppModule</title>
<path fill="none" stroke="black" d="M541,-84.82C541,-102.17 541,-125.8 541,-125.8 541,-125.8 456.91,-125.8 456.91,-125.8"/>
<polygon fill="black" stroke="black" points="456.91,-122.3 446.91,-125.8 456.91,-129.3 456.91,-122.3"/>
</g>
<!-- AppRoutingModule -->
<g id="node4" class="node">
<title>AppRoutingModule</title>
<polygon fill="#8dd3c7" stroke="black" points="469.27,-84.8 466.27,-88.8 445.27,-88.8 442.27,-84.8 340.73,-84.8 340.73,-48.8 469.27,-48.8 469.27,-84.8"/>
<text text-anchor="middle" x="405" y="-62.6" font-family="Times,serif" font-size="14.00">AppRoutingModule</text>
</g>
<!-- AppRoutingModule&#45;&gt;AppModule -->
<g id="edge3" class="edge">
<title>AppRoutingModule&#45;&gt;AppModule</title>
<path fill="none" stroke="black" d="M405,-84.91C405,-84.91 405,-103.79 405,-103.79"/>
<polygon fill="black" stroke="black" points="401.5,-103.79 405,-113.79 408.5,-103.79 401.5,-103.79"/>
</g>
<!-- BrowserAnimationsModule -->
<g id="node5" class="node">
<title>BrowserAnimationsModule</title>
<polygon fill="#8dd3c7" stroke="black" points="322.3,-84.8 319.3,-88.8 298.3,-88.8 295.3,-84.8 149.7,-84.8 149.7,-48.8 322.3,-48.8 322.3,-84.8"/>
<text text-anchor="middle" x="236" y="-62.6" font-family="Times,serif" font-size="14.00">BrowserAnimationsModule</text>
</g>
<!-- BrowserAnimationsModule&#45;&gt;AppModule -->
<g id="edge4" class="edge">
<title>BrowserAnimationsModule&#45;&gt;AppModule</title>
<path fill="none" stroke="black" d="M236,-84.82C236,-102.17 236,-125.8 236,-125.8 236,-125.8 353.22,-125.8 353.22,-125.8"/>
<polygon fill="black" stroke="black" points="353.22,-129.3 363.22,-125.8 353.22,-122.3 353.22,-129.3"/>
</g>
<!-- ProductsModule -->
<g id="node6" class="node">
<title>ProductsModule</title>
<polygon fill="#8dd3c7" stroke="black" points="132.04,-84.8 129.04,-88.8 108.04,-88.8 105.04,-84.8 23.96,-84.8 23.96,-48.8 132.04,-48.8 132.04,-84.8"/>
<text text-anchor="middle" x="78" y="-62.6" font-family="Times,serif" font-size="14.00">ProductsModule</text>
</g>
<!-- ProductsModule&#45;&gt;AppModule -->
<g id="edge5" class="edge">
<title>ProductsModule&#45;&gt;AppModule</title>
<path fill="none" stroke="black" d="M78,-85.08C78,-106.12 78,-137.8 78,-137.8 78,-137.8 353.25,-137.8 353.25,-137.8"/>
<polygon fill="black" stroke="black" points="353.25,-141.3 363.25,-137.8 353.25,-134.3 353.25,-141.3"/>
</g>
</g>
</svg>
