<?xml version="1.0" encoding="UTF-8" standalone="no"?>
<!DOCTYPE svg PUBLIC "-//W3C//DTD SVG 1.1//EN"
 "http://www.w3.org/Graphics/SVG/1.1/DTD/svg11.dtd">
<!-- Generated by graphviz version 2.47.3 (20210619.1520)
 -->
<!-- Title: dependencies Pages: 1 -->
<svg width="1421pt" height="391pt"
 viewBox="0.00 0.00 1421.00 390.80" xmlns="http://www.w3.org/2000/svg" xmlns:xlink="http://www.w3.org/1999/xlink">
<g id="graph0" class="graph" transform="scale(1 1) rotate(0) translate(4 386.8)">
<title>dependencies</title>
<polygon fill="white" stroke="transparent" points="-4,4 -4,-386.8 1417,-386.8 1417,4 -4,4"/>
<text text-anchor="middle" x="706.5" y="-8.2" font-family="sans-serif" font-size="14.00">dependencies</text>
<g id="clust1" class="cluster">
<title>cluster_AppModule</title>
<polygon fill="none" stroke="black" stroke-dasharray="1,5" points="371,-176.8 371,-374.8 1103,-374.8 1103,-176.8 371,-176.8"/>
</g>
<g id="clust2" class="cluster">
<title>cluster_AppModule_declarations</title>
<polygon fill="none" stroke="black" points="973,-184.8 973,-236.8 1095,-236.8 1095,-184.8 973,-184.8"/>
</g>
<g id="clust4" class="cluster">
<title>cluster_AppModule_imports</title>
<polygon fill="none" stroke="black" points="379,-184.8 379,-236.8 965,-236.8 965,-184.8 379,-184.8"/>
</g>
<g id="clust6" class="cluster">
<title>cluster_AppModule_bootstrap</title>
<polygon fill="none" stroke="black" points="706,-314.8 706,-366.8 830,-366.8 830,-314.8 706,-314.8"/>
</g>
<g id="clust8" class="cluster">
<title>cluster_MaterialModule</title>
<polygon fill="none" stroke="black" stroke-dasharray="1,5" points="1111,-32.8 1111,-244.8 1405,-244.8 1405,-32.8 1111,-32.8"/>
</g>
<g id="clust10" class="cluster">
<title>cluster_MaterialModule_imports</title>
<polygon fill="none" stroke="black" points="1119,-40.8 1119,-92.8 1397,-92.8 1397,-40.8 1119,-40.8"/>
</g>
<g id="clust11" class="cluster">
<title>cluster_MaterialModule_exports</title>
<polygon fill="none" stroke="black" points="1119,-184.8 1119,-236.8 1271,-236.8 1271,-184.8 1119,-184.8"/>
</g>
<g id="clust14" class="cluster">
<title>cluster_ProductsModule</title>
<polygon fill="none" stroke="black" stroke-dasharray="1,5" points="8,-100.8 8,-168.8 1029,-168.8 1029,-100.8 8,-100.8"/>
</g>
<g id="clust15" class="cluster">
<title>cluster_ProductsModule_declarations</title>
<polygon fill="none" stroke="black" points="505,-108.8 505,-160.8 1021,-160.8 1021,-108.8 505,-108.8"/>
</g>
<g id="clust19" class="cluster">
<title>cluster_ProductsModule_imports</title>
<polygon fill="none" stroke="black" points="270,-108.8 270,-160.8 497,-160.8 497,-108.8 270,-108.8"/>
</g>
<g id="clust20" class="cluster">
<title>cluster_ProductsModule_exports</title>
<polygon fill="none" stroke="black" points="16,-108.8 16,-160.8 262,-160.8 262,-108.8 16,-108.8"/>
</g>
<!-- AppComponent -->
<g id="node1" class="node">
<title>AppComponent</title>
<polygon fill="#ffffb3" stroke="black" points="1086.94,-228.8 981.06,-228.8 981.06,-192.8 1086.94,-192.8 1086.94,-228.8"/>
<text text-anchor="middle" x="1034" y="-206.6" font-family="Times,serif" font-size="14.00">AppComponent</text>
</g>
<!-- AppModule -->
<g id="node2" class="node">
<title>AppModule</title>
<polygon fill="#8dd3c7" stroke="black" points="809.66,-293.8 806.66,-297.8 785.66,-297.8 782.66,-293.8 726.34,-293.8 726.34,-257.8 809.66,-257.8 809.66,-293.8"/>
<text text-anchor="middle" x="768" y="-271.6" font-family="Times,serif" font-size="14.00">AppModule</text>
</g>
<!-- AppComponent&#45;&gt;AppModule -->
<g id="edge1" class="edge">
<title>AppComponent&#45;&gt;AppModule</title>
<path fill="none" stroke="black" d="M1034,-229.08C1034,-250.12 1034,-281.8 1034,-281.8 1034,-281.8 819.86,-281.8 819.86,-281.8"/>
<polygon fill="black" stroke="black" points="819.86,-278.3 809.86,-281.8 819.86,-285.3 819.86,-278.3"/>
</g>
<!-- AppComponent  -->
<g id="node7" class="node">
<title>AppComponent </title>
<polygon fill="#80b1d3" stroke="black" points="822.44,-358.8 713.56,-358.8 713.56,-322.8 822.44,-322.8 822.44,-358.8"/>
<text text-anchor="middle" x="768" y="-336.6" font-family="Times,serif" font-size="14.00">AppComponent </text>
</g>
<!-- AppModule&#45;&gt;AppComponent  -->
<g id="edge6" class="edge">
<title>AppModule&#45;&gt;AppComponent </title>
<path fill="none" stroke="black" stroke-dasharray="1,5" d="M768,-293.91C768,-293.91 768,-312.79 768,-312.79"/>
<polygon fill="black" stroke="black" points="764.5,-312.79 768,-322.79 771.5,-312.79 764.5,-312.79"/>
</g>
<!-- BrowserModule -->
<g id="node3" class="node">
<title>BrowserModule</title>
<polygon fill="#8dd3c7" stroke="black" points="957.47,-228.8 954.47,-232.8 933.47,-232.8 930.47,-228.8 850.53,-228.8 850.53,-192.8 957.47,-192.8 957.47,-228.8"/>
<text text-anchor="middle" x="904" y="-206.6" font-family="Times,serif" font-size="14.00">BrowserModule</text>
</g>
<!-- BrowserModule&#45;&gt;AppModule -->
<g id="edge2" class="edge">
<title>BrowserModule&#45;&gt;AppModule</title>
<path fill="none" stroke="black" d="M904,-228.82C904,-246.17 904,-269.8 904,-269.8 904,-269.8 819.91,-269.8 819.91,-269.8"/>
<polygon fill="black" stroke="black" points="819.91,-266.3 809.91,-269.8 819.91,-273.3 819.91,-266.3"/>
</g>
<!-- AppRoutingModule -->
<g id="node4" class="node">
<title>AppRoutingModule</title>
<polygon fill="#8dd3c7" stroke="black" points="832.27,-228.8 829.27,-232.8 808.27,-232.8 805.27,-228.8 703.73,-228.8 703.73,-192.8 832.27,-192.8 832.27,-228.8"/>
<text text-anchor="middle" x="768" y="-206.6" font-family="Times,serif" font-size="14.00">AppRoutingModule</text>
</g>
<!-- AppRoutingModule&#45;&gt;AppModule -->
<g id="edge3" class="edge">
<title>AppRoutingModule&#45;&gt;AppModule</title>
<path fill="none" stroke="black" d="M768,-228.91C768,-228.91 768,-247.79 768,-247.79"/>
<polygon fill="black" stroke="black" points="764.5,-247.79 768,-257.79 771.5,-247.79 764.5,-247.79"/>
</g>
<!-- BrowserAnimationsModule -->
<g id="node5" class="node">
<title>BrowserAnimationsModule</title>
<polygon fill="#8dd3c7" stroke="black" points="685.3,-228.8 682.3,-232.8 661.3,-232.8 658.3,-228.8 512.7,-228.8 512.7,-192.8 685.3,-192.8 685.3,-228.8"/>
<text text-anchor="middle" x="599" y="-206.6" font-family="Times,serif" font-size="14.00">BrowserAnimationsModule</text>
</g>
<!-- BrowserAnimationsModule&#45;&gt;AppModule -->
<g id="edge4" class="edge">
<title>BrowserAnimationsModule&#45;&gt;AppModule</title>
<path fill="none" stroke="black" d="M599,-228.82C599,-246.17 599,-269.8 599,-269.8 599,-269.8 716.22,-269.8 716.22,-269.8"/>
<polygon fill="black" stroke="black" points="716.22,-273.3 726.22,-269.8 716.22,-266.3 716.22,-273.3"/>
</g>
<!-- ProductsModule -->
<g id="node6" class="node">
<title>ProductsModule</title>
<polygon fill="#8dd3c7" stroke="black" points="495.04,-228.8 492.04,-232.8 471.04,-232.8 468.04,-228.8 386.96,-228.8 386.96,-192.8 495.04,-192.8 495.04,-228.8"/>
<text text-anchor="middle" x="441" y="-206.6" font-family="Times,serif" font-size="14.00">ProductsModule</text>
</g>
<!-- ProductsModule&#45;&gt;AppModule -->
<g id="edge5" class="edge">
<title>ProductsModule&#45;&gt;AppModule</title>
<path fill="none" stroke="black" d="M441,-229.08C441,-250.12 441,-281.8 441,-281.8 441,-281.8 716.25,-281.8 716.25,-281.8"/>
<polygon fill="black" stroke="black" points="716.25,-285.3 726.25,-281.8 716.25,-278.3 716.25,-285.3"/>
</g>
<!-- MaterialModule  -->
<g id="node17" class="node">
<title>MaterialModule </title>
<polygon fill="#fb8072" stroke="black" points="254.47,-152.8 143.53,-152.8 143.53,-116.8 254.47,-116.8 254.47,-152.8"/>
<text text-anchor="middle" x="199" y="-130.6" font-family="Times,serif" font-size="14.00">MaterialModule </text>
</g>
<!-- ProductsModule&#45;&gt;MaterialModule  -->
<g id="edge17" class="edge">
<title>ProductsModule&#45;&gt;MaterialModule </title>
<path fill="none" stroke="black" stroke-dasharray="5,2" d="M386.69,-210.8C315.34,-210.8 199,-210.8 199,-210.8 199,-210.8 199,-162.81 199,-162.81"/>
<polygon fill="black" stroke="black" points="202.5,-162.81 199,-152.81 195.5,-162.81 202.5,-162.81"/>
</g>
<!-- RouterModule  -->
<g id="node18" class="node">
<title>RouterModule </title>
<polygon fill="#fb8072" stroke="black" points="125.65,-152.8 24.35,-152.8 24.35,-116.8 125.65,-116.8 125.65,-152.8"/>
<text text-anchor="middle" x="75" y="-130.6" font-family="Times,serif" font-size="14.00">RouterModule </text>
</g>
<!-- ProductsModule&#45;&gt;RouterModule  -->
<g id="edge18" class="edge">
<title>ProductsModule&#45;&gt;RouterModule </title>
<path fill="none" stroke="black" stroke-dasharray="5,2" d="M386.6,-219.8C284.65,-219.8 75,-219.8 75,-219.8 75,-219.8 75,-162.83 75,-162.83"/>
<polygon fill="black" stroke="black" points="78.5,-162.83 75,-152.83 71.5,-162.83 78.5,-162.83"/>
</g>
<!-- CommonModule -->
<g id="node8" class="node">
<title>CommonModule</title>
<polygon fill="#8dd3c7" stroke="black" points="1238.67,-84.8 1235.67,-88.8 1214.67,-88.8 1211.67,-84.8 1127.33,-84.8 1127.33,-48.8 1238.67,-48.8 1238.67,-84.8"/>
<text text-anchor="middle" x="1183" y="-62.6" font-family="Times,serif" font-size="14.00">CommonModule</text>
</g>
<!-- CommonModule&#45;&gt;ProductsModule -->
<g id="edge13" class="edge">
<title>CommonModule&#45;&gt;ProductsModule</title>
<path fill="none" stroke="black" d="M1127.2,-66.8C964.35,-66.8 501.13,-66.8 501.13,-66.8 501.13,-66.8 501.13,-204.8 501.13,-204.8 501.13,-204.8 500.53,-204.8 500.53,-204.8"/>
<polygon fill="black" stroke="black" points="505.15,-201.3 495.15,-204.8 505.15,-208.3 505.15,-201.3"/>
</g>
<!-- MaterialModule -->
<g id="node10" class="node">
<title>MaterialModule</title>
<polygon fill="#8dd3c7" stroke="black" points="1242.47,-152.8 1239.47,-156.8 1218.47,-156.8 1215.47,-152.8 1135.53,-152.8 1135.53,-116.8 1242.47,-116.8 1242.47,-152.8"/>
<text text-anchor="middle" x="1189" y="-130.6" font-family="Times,serif" font-size="14.00">MaterialModule</text>
</g>
<!-- CommonModule&#45;&gt;MaterialModule -->
<g id="edge7" class="edge">
<title>CommonModule&#45;&gt;MaterialModule</title>
<path fill="none" stroke="black" d="M1187.17,-85.02C1187.17,-85.02 1187.17,-106.53 1187.17,-106.53"/>
<polygon fill="black" stroke="black" points="1183.67,-106.53 1187.17,-116.53 1190.67,-106.53 1183.67,-106.53"/>
</g>
<!-- materialComponents -->
<g id="node9" class="node">
<title>materialComponents</title>
<polygon fill="#8dd3c7" stroke="black" points="1389.14,-84.8 1386.14,-88.8 1365.14,-88.8 1362.14,-84.8 1256.86,-84.8 1256.86,-48.8 1389.14,-48.8 1389.14,-84.8"/>
<text text-anchor="middle" x="1323" y="-62.6" font-family="Times,serif" font-size="14.00">materialComponents</text>
</g>
<!-- materialComponents&#45;&gt;MaterialModule -->
<g id="edge8" class="edge">
<title>materialComponents&#45;&gt;MaterialModule</title>
<path fill="none" stroke="black" d="M1326.2,-85.02C1326.2,-105.17 1326.2,-134.8 1326.2,-134.8 1326.2,-134.8 1252.83,-134.8 1252.83,-134.8"/>
<polygon fill="black" stroke="black" points="1252.83,-131.3 1242.83,-134.8 1252.83,-138.3 1252.83,-131.3"/>
</g>
<!-- MaterialModule&#45;&gt;ProductsModule -->
<g id="edge14" class="edge">
<title>MaterialModule&#45;&gt;ProductsModule</title>
<path fill="none" stroke="black" d="M1171.17,-152.95C1171.17,-166.54 1171.17,-182.8 1171.17,-182.8 1171.17,-182.8 469.6,-182.8 469.6,-182.8 469.6,-182.8 469.6,-183.78 469.6,-183.78"/>
<polygon fill="black" stroke="black" points="466.1,-182.59 469.6,-192.59 473.1,-182.59 466.1,-182.59"/>
</g>
<!-- materialComponents  -->
<g id="node11" class="node">
<title>materialComponents </title>
<polygon fill="#fb8072" stroke="black" points="1263.14,-228.8 1126.86,-228.8 1126.86,-192.8 1263.14,-192.8 1263.14,-228.8"/>
<text text-anchor="middle" x="1195" y="-206.6" font-family="Times,serif" font-size="14.00">materialComponents </text>
</g>
<!-- MaterialModule&#45;&gt;materialComponents  -->
<g id="edge9" class="edge">
<title>MaterialModule&#45;&gt;materialComponents </title>
<path fill="none" stroke="black" stroke-dasharray="5,2" d="M1206.83,-152.81C1206.83,-152.81 1206.83,-182.65 1206.83,-182.65"/>
<polygon fill="black" stroke="black" points="1203.33,-182.65 1206.83,-192.65 1210.33,-182.65 1203.33,-182.65"/>
</g>
<!-- ProductsListComponent -->
<g id="node12" class="node">
<title>ProductsListComponent</title>
<polygon fill="#ffffb3" stroke="black" points="1013.1,-152.8 860.9,-152.8 860.9,-116.8 1013.1,-116.8 1013.1,-152.8"/>
<text text-anchor="middle" x="937" y="-130.6" font-family="Times,serif" font-size="14.00">ProductsListComponent</text>
</g>
<!-- ProductsListComponent&#45;&gt;ProductsModule -->
<g id="edge10" class="edge">
<title>ProductsListComponent&#45;&gt;ProductsModule</title>
<path fill="none" stroke="black" d="M909.22,-152.91C909.22,-162.7 909.22,-172.8 909.22,-172.8 909.22,-172.8 450.53,-172.8 450.53,-172.8 450.53,-172.8 450.53,-182.69 450.53,-182.69"/>
<polygon fill="black" stroke="black" points="447.03,-182.69 450.53,-192.69 454.03,-182.69 447.03,-182.69"/>
</g>
<!-- ProductDetailsComponent -->
<g id="node13" class="node">
<title>ProductDetailsComponent</title>
<polygon fill="#ffffb3" stroke="black" points="843.03,-152.8 678.97,-152.8 678.97,-116.8 843.03,-116.8 843.03,-152.8"/>
<text text-anchor="middle" x="761" y="-130.6" font-family="Times,serif" font-size="14.00">ProductDetailsComponent</text>
</g>
<!-- ProductDetailsComponent&#45;&gt;ProductsModule -->
<g id="edge11" class="edge">
<title>ProductDetailsComponent&#45;&gt;ProductsModule</title>
<path fill="none" stroke="black" d="M694.38,-153.01C694.38,-158.35 694.38,-162.8 694.38,-162.8 694.38,-162.8 431.47,-162.8 431.47,-162.8 431.47,-162.8 431.47,-182.65 431.47,-182.65"/>
<polygon fill="black" stroke="black" points="427.97,-182.65 431.47,-192.65 434.97,-182.65 427.97,-182.65"/>
</g>
<!-- AddproductComponent -->
<g id="node14" class="node">
<title>AddproductComponent</title>
<polygon fill="#ffffb3" stroke="black" points="661.2,-152.8 512.8,-152.8 512.8,-116.8 661.2,-116.8 661.2,-152.8"/>
<text text-anchor="middle" x="587" y="-130.6" font-family="Times,serif" font-size="14.00">AddproductComponent</text>
</g>
<!-- AddproductComponent&#45;&gt;ProductsModule -->
<g id="edge12" class="edge">
<title>AddproductComponent&#45;&gt;ProductsModule</title>
<path fill="none" stroke="black" d="M512.74,-134.8C509.14,-134.8 506.99,-134.8 506.99,-134.8 506.99,-134.8 506.99,-216.8 506.99,-216.8 506.99,-216.8 505.19,-216.8 505.19,-216.8"/>
<polygon fill="black" stroke="black" points="505.19,-213.3 495.19,-216.8 505.19,-220.3 505.19,-213.3"/>
</g>
<!-- FormsModule -->
<g id="node15" class="node">
<title>FormsModule</title>
<polygon fill="#8dd3c7" stroke="black" points="488.83,-152.8 485.83,-156.8 464.83,-156.8 461.83,-152.8 393.17,-152.8 393.17,-116.8 488.83,-116.8 488.83,-152.8"/>
<text text-anchor="middle" x="441" y="-130.6" font-family="Times,serif" font-size="14.00">FormsModule</text>
</g>
<!-- FormsModule&#45;&gt;ProductsModule -->
<g id="edge15" class="edge">
<title>FormsModule&#45;&gt;ProductsModule</title>
<path fill="none" stroke="black" d="M412.4,-152.81C412.4,-152.81 412.4,-182.65 412.4,-182.65"/>
<polygon fill="black" stroke="black" points="408.9,-182.65 412.4,-192.65 415.9,-182.65 408.9,-182.65"/>
</g>
<!-- RouterModule -->
<g id="node16" class="node">
<title>RouterModule</title>
<polygon fill="#8dd3c7" stroke="black" points="375.65,-152.8 372.65,-156.8 351.65,-156.8 348.65,-152.8 278.35,-152.8 278.35,-116.8 375.65,-116.8 375.65,-152.8"/>
<text text-anchor="middle" x="327" y="-130.6" font-family="Times,serif" font-size="14.00">RouterModule</text>
</g>
<!-- RouterModule&#45;&gt;ProductsModule -->
<g id="edge16" class="edge">
<title>RouterModule&#45;&gt;ProductsModule</title>
<path fill="none" stroke="black" d="M327,-153.11C327,-172.95 327,-201.8 327,-201.8 327,-201.8 376.67,-201.8 376.67,-201.8"/>
<polygon fill="black" stroke="black" points="376.67,-205.3 386.67,-201.8 376.67,-198.3 376.67,-205.3"/>
</g>
</g>
</svg>
